<?xml version="1.0" encoding="UTF-8" standalone="no"?>
<!-- Created with Inkscape (http://www.inkscape.org/) -->

<svg
   width="105.83334mm"
   height="105.83334mm"
   viewBox="0 0 105.83334 105.83334"
   version="1.1"
   id="svg1"
   sodipodi:docname="AltPlano_espiral_ok.svg"
   inkscape:version="1.3.2 (091e20e, 2023-11-25, custom)"
   xmlns:inkscape="http://www.inkscape.org/namespaces/inkscape"
   xmlns:sodipodi="http://sodipodi.sourceforge.net/DTD/sodipodi-0.dtd"
   xmlns="http://www.w3.org/2000/svg"
   xmlns:svg="http://www.w3.org/2000/svg">
  <sodipodi:namedview
     id="namedview1"
     pagecolor="#ffffff"
     bordercolor="#000000"
     borderopacity="0.25"
     inkscape:showpageshadow="2"
     inkscape:pageopacity="0.0"
     inkscape:pagecheckerboard="0"
     inkscape:deskcolor="#d1d1d1"
     inkscape:document-units="mm"
     inkscape:zoom="0.73139029"
     inkscape:cx="396.50513"
     inkscape:cy="561.25984"
     inkscape:window-width="1920"
     inkscape:window-height="1017"
     inkscape:window-x="1432"
     inkscape:window-y="-8"
     inkscape:window-maximized="1"
     inkscape:current-layer="svg1" />
  <defs
     id="defs1" />
  <g
     id="layer1"
     transform="matrix(2.3007246,0,0,2.3007246,-180.86723,-264.23882)"
     style="stroke-width:0.434646">
    <g
       id="g1"
       transform="matrix(1.0022253,0,0,1,-0.17493538,0)"
       style="stroke-width:0.434163">
      <g
         id="g2-4-8-1"
         transform="matrix(1.0241617,0,0,1.0025687,-7.0127828,-5.2377266)"
         style="stroke-width:0.428461">
        <ellipse
           style="display:inline;fill:#1a1a1a;fill-opacity:1;stroke:#000000;stroke-width:0;stroke-linecap:butt;stroke-linejoin:bevel;stroke-miterlimit:0;stroke-dasharray:none;stroke-opacity:1;paint-order:stroke fill markers"
           id="path12-1-5-4-12-7-4"
           cx="106.07664"
           cy="142.49068"
           rx="22.258472"
           ry="22.297089" />
        <path
           style="display:inline;fill:#842bc3;fill-opacity:1;stroke-width:0.428461"
           d="m 104.02706,165.53326 c -14.958577,-1.64598 -24.232807,-16.91068 -18.903037,-31.11305 7.32486,-19.5187 34.614217,-19.52038 41.836767,-0.002 5.85517,15.82268 -6.73057,32.89854 -22.93373,31.11561 z m 4.70749,-1.06143 c 14.25092,-1.75304 22.96835,-17.03481 17.58534,-30.82734 -0.34705,-0.88921 -1.26895,-2.8108 -1.32256,-2.75665 -0.0177,0.0179 0.0223,0.13662 0.087,0.2657 4.06791,8.09633 1.30932,19.54901 -6.16143,25.58007 -13.1218,10.59306 -31.739227,-1.62229 -26.267537,-17.23483 3.77843,-10.78107 17.991037,-12.46346 22.667587,-2.68322 4.38821,9.17723 -6.23133,18.9444 -13.71519,12.61431 -6.157257,-5.20797 -0.24996,-15.90034 6.75178,-12.2209 5.51011,2.8956 2.00523,12.0422 -3.5795,9.34133 -3.89449,-1.88347 -1.86582,-8.43588 2.15827,-6.97103 2.75189,1.00173 2.39868,5.21467 -0.43762,5.2197 -2.09741,0.004 -2.90745,-2.85116 -1.05654,-3.72363 1.47076,-0.69326 2.84302,1.21193 1.64085,2.27809 -0.92639,0.82159 -2.32312,-0.57974 -1.41534,-1.42003 0.62827,-0.58157 1.57867,0.17297 1.03697,0.82326 -0.3852,0.4624 -1.09288,-0.009 -0.81127,-0.54116 0.14554,-0.27482 0.66571,-0.16276 0.66571,0.14343 0,0.30614 -0.42701,0.36951 -0.54215,0.0804 -0.034,-0.0852 -0.0553,-0.10027 -0.0578,-0.0403 -0.0106,0.26418 0.32969,0.42423 0.53866,0.25332 0.28627,-0.23414 0.0883,-0.6838 -0.30099,-0.6838 -0.6099,0 -0.63104,1.0314 -0.0243,1.18521 0.84863,0.21514 1.22487,-1.19013 0.42173,-1.57509 -1.344,-0.6442 -2.13673,1.54555 -0.82371,2.27525 1.59136,0.88438 2.95024,-1.62954 1.56223,-2.89009 -2.13312,-1.93718 -4.83946,1.60144 -2.85975,3.73923 2.75777,2.97802 6.95597,-1.89248 4.28733,-4.97389 -3.55407,-4.10383 -9.563707,1.86982 -6.542,6.50282 3.775,5.78795 12.64034,0.0186 10.48699,-6.82468 -2.98137,-9.47473 -16.961667,-4.76586 -16.385237,5.51889 0.72813,12.99163 19.058327,13.29295 23.270637,0.38252 0.5762,-1.76602 0.7709,-2.7736 0.83165,-4.30404 0.64038,-16.12907 -21.454267,-21.43359 -30.675717,-7.36468 -9.33072,14.23568 2.16326,32.90121 18.985797,30.83184 z"
           id="path2-2-7-6-2-4-1" />
        <g
           id="text3-8-8-7-4-8-4"
           style="font-size:13.8536px;font-family:'Matura MT Script Capitals';-inkscape-font-specification:'Matura MT Script Capitals, Normal';display:inline;fill:#ffffff;stroke:#000000;stroke-width:0.642693;stroke-linejoin:round;stroke-miterlimit:0;stroke-dasharray:none;stroke-opacity:1;paint-order:stroke fill markers"
           aria-label="Alt plano"
           transform="translate(5.241034,64.145516)">
          <g
             id="g11-2-7-8-0-5-4"
             style="fill:#4b4b4b;fill-opacity:1;stroke-width:0.642693;stroke-linejoin:round;stroke-dasharray:none" />
        </g>
        <g
           id="text3-8-8-4-2-4-54-8"
           style="font-size:13.8536px;font-family:'Matura MT Script Capitals';-inkscape-font-specification:'Matura MT Script Capitals, Normal';display:inline;fill:#ffffff;stroke:#000000;stroke-width:0.428461;stroke-linejoin:bevel;stroke-miterlimit:0;stroke-dasharray:none;stroke-opacity:1;paint-order:stroke fill markers"
           aria-label="Alt plano"
           transform="translate(12.234113,75.182012)">
          <g
             id="g11-2-7-2-3-21-5-9"
             style="fill:#4b4b4b;fill-opacity:1;stroke-width:0.428461;stroke-dasharray:none" />
        </g>
      </g>
    </g>
  </g>
</svg>
