<?xml version="1.0" encoding="UTF-8" standalone="no"?>
<!-- Created with Inkscape (http://www.inkscape.org/) -->

<svg
   width="278.90262"
   height="236.52603"
   viewBox="0 0 73.792985 62.580846"
   version="1.1"
   id="svg1"
   inkscape:export-filename="AltPlano_logomarca3.svg"
   inkscape:export-xdpi="96"
   inkscape:export-ydpi="96"
   sodipodi:docname="AltPlano_logomarca4.svg"
   inkscape:version="1.3.2 (091e20e, 2023-11-25, custom)"
   xmlns:inkscape="http://www.inkscape.org/namespaces/inkscape"
   xmlns:sodipodi="http://sodipodi.sourceforge.net/DTD/sodipodi-0.dtd"
   xmlns="http://www.w3.org/2000/svg"
   xmlns:svg="http://www.w3.org/2000/svg">
  <sodipodi:namedview
     id="namedview1"
     pagecolor="#ffffff"
     bordercolor="#000000"
     borderopacity="0.25"
     inkscape:showpageshadow="2"
     inkscape:pageopacity="0.0"
     inkscape:pagecheckerboard="0"
     inkscape:deskcolor="#d1d1d1"
     inkscape:document-units="px"
     inkscape:zoom="1.6033526"
     inkscape:cx="125.05047"
     inkscape:cy="105.71599"
     inkscape:window-width="1920"
     inkscape:window-height="1017"
     inkscape:window-x="1432"
     inkscape:window-y="-8"
     inkscape:window-maximized="1"
     inkscape:current-layer="g2-4-8-1-4" />
  <defs
     id="defs1" />
  <g
     inkscape:label="Camada 1"
     inkscape:groupmode="layer"
     id="layer1"
     transform="translate(-68.195171,-101.90616)">
    <g
       id="g2-4-8-1-4"
       transform="matrix(1.3669856,0,0,1.3639477,-39.82714,-61.467913)"
       style="stroke-width:0.732347">
      <ellipse
         style="display:inline;fill:#1a1a1a;fill-opacity:1;stroke:#000000;stroke-width:0;stroke-linecap:butt;stroke-linejoin:bevel;stroke-miterlimit:0;stroke-dasharray:none;stroke-opacity:1;paint-order:stroke fill markers"
         id="path12-1-5-4-12-7-4-6"
         cx="106.26397"
         cy="142.89915"
         rx="22.258472"
         ry="22.003918" />
      <path
         style="display:inline;fill:#842bc3;fill-opacity:1;stroke-width:0.732347"
         d="m 104.02706,165.53326 c -14.958577,-1.64598 -24.232807,-16.91068 -18.903037,-31.11305 7.32486,-19.5187 34.614217,-19.52038 41.836767,-0.002 5.85517,15.82268 -6.73057,32.89854 -22.93373,31.11561 z m 4.70749,-1.06143 c 14.25092,-1.75304 22.96835,-17.03481 17.58534,-30.82734 -0.34705,-0.88921 -1.26895,-2.8108 -1.32256,-2.75665 -0.0177,0.0179 0.0223,0.13662 0.087,0.2657 4.06791,8.09633 1.30932,19.54901 -6.16143,25.58007 -13.1218,10.59306 -31.739227,-1.62229 -26.267537,-17.23483 3.77843,-10.78107 17.991037,-12.46346 22.667587,-2.68322 4.38821,9.17723 -6.23133,18.9444 -13.71519,12.61431 -6.157257,-5.20797 -0.24996,-15.90034 6.75178,-12.2209 5.51011,2.8956 2.00523,12.0422 -3.5795,9.34133 -3.89449,-1.88347 -1.86582,-8.43588 2.15827,-6.97103 2.75189,1.00173 2.39868,5.21467 -0.43762,5.2197 -2.09741,0.004 -2.90745,-2.85116 -1.05654,-3.72363 1.47076,-0.69326 2.84302,1.21193 1.64085,2.27809 -0.92639,0.82159 -2.32312,-0.57974 -1.41534,-1.42003 0.62827,-0.58157 1.57867,0.17297 1.03697,0.82326 -0.3852,0.4624 -1.09288,-0.009 -0.81127,-0.54116 0.14554,-0.27482 0.66571,-0.16276 0.66571,0.14343 0,0.30614 -0.42701,0.36951 -0.54215,0.0804 -0.034,-0.0852 -0.0553,-0.10027 -0.0578,-0.0403 -0.0106,0.26418 0.32969,0.42423 0.53866,0.25332 0.28627,-0.23414 0.0883,-0.6838 -0.30099,-0.6838 -0.6099,0 -0.63104,1.0314 -0.0243,1.18521 0.84863,0.21514 1.22487,-1.19013 0.42173,-1.57509 -1.344,-0.6442 -2.13673,1.54555 -0.82371,2.27525 1.59136,0.88438 2.95024,-1.62954 1.56223,-2.89009 -2.13312,-1.93718 -4.83946,1.60144 -2.85975,3.73923 2.75777,2.97802 6.95597,-1.89248 4.28733,-4.97389 -3.55407,-4.10383 -9.563707,1.86982 -6.542,6.50282 3.775,5.78795 12.64034,0.0186 10.48699,-6.82468 -2.98137,-9.47473 -16.961667,-4.76586 -16.385237,5.51889 0.72813,12.99163 19.058327,13.29295 23.270637,0.38252 0.5762,-1.76602 0.7709,-2.7736 0.83165,-4.30404 0.64038,-16.12907 -21.454267,-21.43359 -30.675717,-7.36468 -9.33072,14.23568 2.16326,32.90121 18.985797,30.83184 z"
         id="path2-2-7-6-2-4-1-8" />
      <g
         id="text3-8-8-7-4-8-4-1"
         style="font-size:13.8536px;font-family:'Matura MT Script Capitals';-inkscape-font-specification:'Matura MT Script Capitals, Normal';display:inline;fill:#ffffff;stroke:#000000;stroke-width:1.09853;stroke-linejoin:round;stroke-miterlimit:0;stroke-dasharray:none;stroke-opacity:1;paint-order:stroke fill markers"
         aria-label="Alt plano"
         transform="translate(5.241034,64.145516)">
        <g
           id="g11-2-7-8-0-5-4-8"
           style="fill:#4b4b4b;fill-opacity:1;stroke-width:1.09853;stroke-linejoin:round;stroke-dasharray:none" />
        <path
           d="m 81.69853,94.164131 h -1.210815 l -0.482571,-3.05336 h -2.728721 l -0.482572,3.05336 h -1.175719 v -0.0351 l 2.447953,-13.731347 h 1.202041 z m -1.851319,-4.132565 -1.202041,-7.440372 -1.210815,7.440372 z m 7.887848,4.132565 H 83.348047 V 80.432784 h 1.219589 v 12.652142 h 3.167423 z M 94.131322,81.511989 H 92.008008 V 94.164131 H 90.788419 V 81.511989 h -2.140862 v -1.079205 h 5.483765 z m 6.870058,6.220783 q 0,0.429927 -0.28077,0.710696 -0.27199,0.271995 -0.70192,0.271995 h -3.237613 v 5.448668 H 95.561488 V 80.432784 h 4.457202 q 0.42993,0 0.70192,0.271995 0.28077,0.271995 0.28077,0.701922 z m -1.219587,-0.105288 v -6.115495 h -3.000716 v 6.115495 z m 7.536887,6.536647 h -4.38701 V 80.432784 h 1.21959 v 12.652142 h 3.16742 z m 7.20347,0 h -1.21081 l -0.48257,-3.05336 h -2.72872 l -0.48258,3.05336 h -1.17571 v -0.0351 l 2.44795,-13.731347 h 1.20204 z m -1.85131,-4.132565 -1.20205,-7.440372 -1.21081,7.440372 z m 9.16007,4.132565 h -0.8423 L 117.32107,84.06523 v 10.098901 h -1.1494 V 80.432784 h 0.9125 l 3.59735,9.923421 v -9.923421 h 1.14939 z m 7.99314,-0.973916 q 0,0.429927 -0.28077,0.701921 -0.272,0.271995 -0.70192,0.271995 h -3.84302 q -0.42993,0 -0.70193,-0.271995 -0.27199,-0.271994 -0.27199,-0.701921 V 81.406701 q 0,-0.429927 0.27199,-0.701922 0.272,-0.271995 0.70193,-0.271995 h 3.84302 q 0.42992,0 0.70192,0.271995 0.28077,0.271995 0.28077,0.701922 z m -1.21959,-0.105289 V 81.511989 h -3.36045 v 11.572937 z"
           id="text12-6-9-2-0-9"
           style="font-size:17.9692px;font-family:'Agency FB';-inkscape-font-specification:'Agency FB, Normal';stroke:#262626;stroke-width:0.805586"
           transform="scale(0.98102906,1.0193378)"
           aria-label="ALTPLANO" />
      </g>
      <g
         id="text3-8-8-4-2-4-54-8-4"
         style="font-size:13.8536px;font-family:'Matura MT Script Capitals';-inkscape-font-specification:'Matura MT Script Capitals, Normal';display:inline;fill:#ffffff;stroke:#000000;stroke-width:0.732347;stroke-linejoin:bevel;stroke-miterlimit:0;stroke-dasharray:none;stroke-opacity:1;paint-order:stroke fill markers"
         aria-label="Alt plano"
         transform="translate(12.234113,75.182012)">
        <g
           id="g11-2-7-2-3-21-5-9-5"
           style="fill:#4b4b4b;fill-opacity:1;stroke-width:0.732347;stroke-dasharray:none" />
        <path
           d="m 99.333827,96.256546 h -0.428683 v -0.49637 h 0.428683 z m 2.095473,-0.318692 q 0,0.318692 -0.31587,0.318692 h -0.89121 q -0.315875,0 -0.315875,-0.318692 v -2.106752 q 0,-0.318692 0.315875,-0.318692 h 0.89121 q 0.31587,0 0.31587,0.318692 v 0.547135 h -0.36946 v -0.535853 h -0.7784 v 2.084189 h 0.7784 v -0.612002 h 0.36946 z m 2.18572,0 q 0,0.318692 -0.3187,0.318692 h -0.94197 q -0.31587,0 -0.31587,-0.318692 v -2.106752 q 0,-0.318692 0.31587,-0.318692 h 0.94197 q 0.3187,0 0.3187,0.318692 z m -0.3751,-0.01128 v -2.084189 h -0.82634 v 2.084189 z m 3.74534,0.329973 h -0.3751 v -2.408522 l -0.81788,0.02256 v 2.38596 H 105.42 v -2.408522 l -0.81788,0.02256 v 2.38596 h -0.3751 V 93.51241 h 0.3751 v 0.07615 q 0.21998,-0.0282 0.43996,-0.05923 0.26793,-0.03384 0.44278,-0.03384 0.17204,0 0.25383,0.10435 0.2369,-0.03102 0.47099,-0.06487 0.30741,-0.03948 0.46534,-0.03948 0.31024,0 0.31024,0.307411 z m 0.99556,0 h -0.42869 v -0.49637 h 0.42869 z m 2.14905,-0.589439 q 0,0.253825 -0.1664,0.423042 -0.16639,0.166397 -0.4174,0.166397 h -0.99274 v -4.413743 h 0.3751 v 1.745755 q 0.2228,-0.0282 0.44561,-0.05641 0.28202,-0.03666 0.44278,-0.03666 0.31305,0 0.31305,0.307411 z m -0.3751,-0.05641 v -1.762677 l -0.82634,0.02256 v 2.055987 h 0.51893 q 0.30741,0 0.30741,-0.315872 z m 2.42263,-1.1958 h -0.36946 v -0.566877 l -0.69097,0.02256 v 2.38596 h -0.3751 V 93.51241 h 0.3751 v 0.07615 q 0.18614,-0.0282 0.3751,-0.05923 0.22562,-0.03384 0.3751,-0.03384 0.31023,0 0.31023,0.307411 z"
           id="text12-3-4-9-5-0-6"
           style="font-size:5.77594px;font-family:'Agency FB';-inkscape-font-specification:'Agency FB, Normal';stroke:#262626;stroke-width:0.512646"
           transform="scale(1.073157,0.93183011)"
           aria-label=".com.br" />
      </g>
    </g>
  </g>
</svg>
